<?xml version="1.0" standalone="no"?>
<!DOCTYPE svg PUBLIC "-//W3C//DTD SVG 20010904//EN"
 "http://www.w3.org/TR/2001/REC-SVG-20010904/DTD/svg10.dtd">
<svg version="1.0" xmlns="http://www.w3.org/2000/svg"
 width="512.000000pt" height="512.000000pt" viewBox="0 0 512.000000 512.000000"
 preserveAspectRatio="xMidYMid meet">
<metadata>
Created by potrace 1.11, written by Peter Selinger 2001-2013
</metadata>
<g transform="translate(0.000000,512.000000) scale(0.100000,-0.100000)"
fill="#000000" stroke="none">
<path d="M0 2560 l0 -2560 2560 0 2560 0 0 2560 0 2560 -2560 0 -2560 0 0
-2560z m2094 1403 c26 -85 428 -1616 440 -1677 9 -43 16 -91 16 -106 0 -16 5
-32 10 -35 6 -3 10 5 10 19 0 70 78 391 255 1051 108 402 198 738 201 748 5
16 30 17 344 17 l338 0 6 -37 c15 -92 386 -2770 386 -2785 0 -17 -22 -18 -320
-18 -196 0 -320 4 -320 10 0 5 -34 292 -76 637 -99 827 -101 841 -114 1033 -7
91 -14 167 -16 169 -1 2 -5 -7 -8 -20 -41 -207 -88 -401 -252 -1039 -107 -415
-197 -763 -200 -772 -5 -16 -25 -18 -233 -18 l-227 0 -37 142 c-20 79 -102
392 -181 696 -130 494 -170 658 -232 937 l-18 80 -8 -75 c-4 -41 -16 -174 -28
-295 -12 -121 -55 -500 -95 -843 -41 -343 -75 -627 -75 -632 0 -6 -124 -10
-321 -10 l-321 0 5 33 c4 17 90 651 192 1407 103 756 188 1381 190 1388 3 9
81 12 344 12 315 0 340 -1 345 -17z"/>
</g>
</svg>
