<svg width="30" height="30" viewBox="0 0 30 30" fill="none" xmlns="http://www.w3.org/2000/svg">
<g clip-path="url(#clip0)">
<path d="M15.005 7.29761C10.7513 7.29761 7.3075 10.7451 7.3075 14.9951C7.3075 19.2489 10.755 22.6926 15.005 22.6926C19.2588 22.6926 22.7025 19.2451 22.7025 14.9951C22.7025 10.7414 19.255 7.29761 15.005 7.29761ZM15.005 19.9914C12.2438 19.9914 10.0088 17.7551 10.0088 14.9951C10.0088 12.2351 12.245 9.99886 15.005 9.99886C17.765 9.99886 20.0013 12.2351 20.0013 14.9951C20.0025 17.7551 17.7663 19.9914 15.005 19.9914Z" fill="white"/>
<path d="M21.185 0.0949658C18.425 -0.0337843 11.5887 -0.0275343 8.82624 0.0949658C6.39874 0.208716 4.25749 0.794966 2.53124 2.52122C-0.353756 5.40622 0.0149942 9.29372 0.0149942 14.995C0.0149942 20.83 -0.310006 24.6275 2.53124 27.4687C5.42749 30.3637 9.37124 29.985 15.005 29.985C20.785 29.985 22.78 29.9887 24.8237 29.1975C27.6025 28.1187 29.7 25.635 29.905 21.1737C30.035 18.4125 30.0275 11.5775 29.905 8.81497C29.6575 3.54872 26.8312 0.354966 21.185 0.0949658ZM25.5537 25.56C23.6625 27.4512 21.0387 27.2825 14.9687 27.2825C8.71874 27.2825 6.21249 27.375 4.38374 25.5412C2.27749 23.445 2.65874 20.0787 2.65874 14.975C2.65874 8.06872 1.94999 3.09497 8.88124 2.73997C10.4737 2.68372 10.9425 2.66497 14.9512 2.66497L15.0075 2.70247C21.6687 2.70247 26.895 2.00497 27.2087 8.93497C27.28 10.5162 27.2962 10.9912 27.2962 14.9937C27.295 21.1712 27.4125 23.6925 25.5537 25.56Z" fill="white"/>
<path d="M23.0075 8.79256C24.0009 8.79256 24.8062 7.98724 24.8062 6.99381C24.8062 6.00039 24.0009 5.19507 23.0075 5.19507C22.0141 5.19507 21.2087 6.00039 21.2087 6.99381C21.2087 7.98724 22.0141 8.79256 23.0075 8.79256Z" fill="white"/>
</g>
<defs>
<clipPath id="clip0">
<rect width="30" height="30" fill="white"/>
</clipPath>
</defs>
</svg>
