<svg width="30" height="30" viewBox="0 0 30 30" fill="none" xmlns="http://www.w3.org/2000/svg">
<path d="M2.75755 26.3741H27.2424C28.763 26.3741 30 25.137 30 23.6163V6.38365C30 4.863 28.763 3.62598 27.2424 3.62598H2.75755C1.23702 3.62598 0 4.86312 0 6.38365V23.6163C0 25.137 1.23702 26.3741 2.75755 26.3741ZM1.79591 6.38365C1.79591 5.85254 2.22704 5.42188 2.75755 5.42188H27.2424C27.7732 5.42188 28.2041 5.85254 28.2041 6.38365V23.6163C28.2041 24.1475 27.7731 24.5782 27.2424 24.5782H2.75755C2.22692 24.5782 1.79591 24.1475 1.79591 23.6163V6.38365ZM5.35635 23.3081H3.56044V6.76809L14.7758 14.0493C14.9077 14.1349 15.0922 14.135 15.2245 14.0491L26.4397 6.76809V23.3081H24.6438V10.0752L16.2022 15.5556C15.844 15.788 15.4283 15.9107 15 15.9107C14.5717 15.9107 14.156 15.788 13.7981 15.5557L5.35635 10.0752V23.3081Z" fill="white"/>
</svg>
