<svg width="64" height="64" viewBox="0 0 64 64" fill="none" xmlns="http://www.w3.org/2000/svg">
<path d="M32 0C14.3555 0 0 14.3555 0 32C0 49.6445 14.3555 64 32 64C49.6445 64 64 49.6445 64 32C64 14.3555 49.6445 0 32 0ZM32 61.3334C15.8255 61.3334 2.66663 48.1745 2.66663 32C2.66663 15.8255 15.8255 2.66663 32 2.66663C48.1745 2.66663 61.3334 15.8255 61.3334 32C61.3334 48.1745 48.1745 61.3334 32 61.3334Z" fill="white"/>
<path d="M43.0572 36.3906L33.3332 46.1146V14.6666C33.3332 13.9296 32.7369 13.3333 31.9999 13.3333C31.2629 13.3333 30.6665 13.9296 30.6665 14.6666V46.1145L20.9425 36.3905C20.4216 35.8696 19.5778 35.8696 19.0571 36.3905C18.5362 36.9114 18.5362 37.7551 19.0571 38.2759L31.0571 50.2759C31.3175 50.5362 31.6587 50.6665 31.9999 50.6665C32.341 50.6665 32.6821 50.5362 32.9426 50.2759L44.9426 38.2759C45.4635 37.755 45.4635 36.9112 44.9426 36.3905C44.4217 35.8697 43.5781 35.8697 43.0572 36.3906Z" fill="white"/>
</svg>
