<svg width="70" height="70" viewBox="0 0 70 70" fill="none" xmlns="http://www.w3.org/2000/svg">
<path d="M64.3945 14.5813H55.1607V1.02539C55.1607 0.459102 54.7017 0 54.1353 0H26.7693C26.203 0 25.7439 0.459102 25.7439 1.02539C25.7439 1.59168 26.203 2.05078 26.7693 2.05078H53.1099V45.6814H16.8902V2.05078H22.6695C23.2358 2.05078 23.6949 1.59168 23.6949 1.02539C23.6949 0.459102 23.2358 0 22.6695 0H15.8648C15.2986 0 14.8395 0.459102 14.8395 1.02539V14.5813H5.60561C3.76838 14.5813 2.27377 16.0761 2.27377 17.9132V54.7449C2.27377 56.5827 3.76852 58.078 5.60561 58.078H28.4504C29.0192 60.6382 28.1806 62.8647 25.9976 64.5657H24.6058C23.2308 64.5657 22.0272 65.3326 21.6105 66.4742L21.0346 68.0523C20.8723 68.4966 20.9374 68.9933 21.2085 69.3809C21.4796 69.7687 21.9238 70 22.3969 70H47.603C48.0761 70 48.5204 69.7687 48.7915 69.3809C49.0625 68.9933 49.1276 68.4966 48.9654 68.0524L48.3893 66.4742C47.9727 65.3326 46.7689 64.5657 45.394 64.5657H44.0022C41.8193 62.8647 40.9806 60.6382 41.5495 58.078H46.9936C47.5601 58.078 48.019 57.619 48.019 57.0526C48.019 56.4862 47.5601 56.0272 46.9936 56.0272C38.5867 56.0272 14.0135 56.0272 5.60534 56.0272C4.89891 56.0272 4.32428 55.452 4.32428 54.7449V47.7322C23.379 47.733 29.4388 47.7328 65.6753 47.7322V54.7449C65.6753 55.452 65.1007 56.0272 64.3943 56.0272H51.0934C50.527 56.0272 50.068 56.4862 50.068 57.0526C50.068 57.619 50.527 58.078 51.0934 58.078H64.3945C66.2318 58.078 67.7264 56.5827 67.7264 54.7449V17.9132C67.7264 16.0761 66.2316 14.5813 64.3945 14.5813ZM46.463 67.1773L46.745 67.9492H23.2553L23.5371 67.1773C23.6363 66.9055 24.0446 66.6165 24.606 66.6165H45.3943C45.9555 66.6165 46.3638 66.9055 46.463 67.1773ZM39.4569 58.078C39.0314 60.4945 39.5921 62.7143 41.0812 64.5657H28.9188C30.4078 62.7143 30.9686 60.4945 30.5431 58.078H39.4569ZM55.1607 20.2038H62.1035V45.6816H55.1607V20.2038ZM7.89647 45.6814V20.2038H14.8395V45.6816H7.89647V45.6814ZM4.32455 17.9132C4.32455 17.2067 4.89932 16.6321 5.60561 16.6321H14.8395V18.153H6.87108C6.30479 18.153 5.84569 18.6121 5.84569 19.1784V45.6816H4.32455V17.9132ZM64.1543 45.6814V19.1784C64.1543 18.6121 63.6953 18.153 63.1289 18.153H55.1607V16.6321H64.3945C65.101 16.6321 65.6756 17.2069 65.6756 17.9132V45.6814H64.1543Z" fill="#2C2C2C"/>
<path d="M33.8077 50.8543C33.2414 50.8543 32.7823 51.3133 32.7823 51.8797C32.7823 52.4461 33.2414 52.9051 33.8077 52.9051H36.1925C36.7589 52.9051 37.2179 52.4461 37.2179 51.8797C37.2179 51.3133 36.7589 50.8543 36.1925 50.8543H33.8077Z" fill="#2C2C2C"/>
<path d="M51.134 6.55598C51.134 5.55069 50.3163 4.73297 49.311 4.73297H20.6891C19.6838 4.73297 18.8661 5.55082 18.8661 6.55598V8.48891C18.8661 9.4942 19.6839 10.3119 20.6891 10.3119H49.311C50.3163 10.3119 51.134 9.49407 51.134 8.48891V6.55598ZM49.0832 8.26114H20.9167V6.78375H49.0831V8.26114H49.0832Z" fill="#2C2C2C"/>
<path d="M23.4639 23.355C25.9993 23.355 28.0618 21.2925 28.0618 18.7572C28.0618 16.2218 25.9993 14.1593 23.4639 14.1593C20.9286 14.1593 18.8661 16.2218 18.8661 18.7572C18.8661 21.2925 20.9286 23.355 23.4639 23.355ZM23.4639 16.2099C24.8685 16.2099 26.011 17.3525 26.011 18.757C26.011 20.1615 24.8685 21.3041 23.4639 21.3041C22.0594 21.3041 20.9169 20.1615 20.9169 18.757C20.9169 17.3525 22.0594 16.2099 23.4639 16.2099Z" fill="#2C2C2C"/>
<path d="M39.598 18.757C39.598 16.2217 37.5353 14.1591 35.0001 14.1591C32.4648 14.1591 30.4023 16.2217 30.4023 18.757C30.4023 21.2923 32.4648 23.3548 35.0001 23.3548C37.5353 23.355 39.598 21.2923 39.598 18.757ZM32.4529 18.757C32.4529 17.3525 33.5955 16.2099 35 16.2099C36.4045 16.2099 37.5471 17.3525 37.5471 18.757C37.5471 20.1615 36.4045 21.304 35 21.304C33.5955 21.304 32.4529 20.1615 32.4529 18.757Z" fill="#2C2C2C"/>
<path d="M46.5362 14.1591C44.0009 14.1591 41.9382 16.2217 41.9382 18.757C41.9382 21.2923 44.0009 23.3548 46.5362 23.3548C49.0715 23.3548 51.134 21.2923 51.134 18.757C51.134 16.2217 49.0715 14.1591 46.5362 14.1591ZM46.5362 21.3042C45.1317 21.3042 43.989 20.1616 43.989 18.7571C43.989 17.3526 45.1315 16.21 46.5362 16.21C47.9406 16.21 49.0833 17.3526 49.0833 18.7571C49.0833 20.1616 47.9406 21.3042 46.5362 21.3042Z" fill="#2C2C2C"/>
<path d="M26.6614 35.8365H19.8915C19.3252 35.8365 18.8661 36.2955 18.8661 36.8619C18.8661 37.4284 19.3252 37.8873 19.8915 37.8873H26.6614C27.2277 37.8873 27.6868 37.4284 27.6868 36.8619C27.6868 36.2955 27.2277 35.8365 26.6614 35.8365Z" fill="#2C2C2C"/>
<path d="M38.385 35.8365H31.6151C31.0488 35.8365 30.5897 36.2955 30.5897 36.8619C30.5897 37.4284 31.0488 37.8873 31.6151 37.8873H38.385C38.9514 37.8873 39.4104 37.4284 39.4104 36.8619C39.4104 36.2955 38.9513 35.8365 38.385 35.8365Z" fill="#2C2C2C"/>
<path d="M50.1086 35.8365H43.3387C42.7723 35.8365 42.3134 36.2955 42.3134 36.8619C42.3134 37.4284 42.7723 37.8873 43.3387 37.8873H50.1086C50.6751 37.8873 51.134 37.4284 51.134 36.8619C51.134 36.2955 50.6749 35.8365 50.1086 35.8365Z" fill="#2C2C2C"/>
<path d="M26.6614 40.8886H19.8915C19.3252 40.8886 18.8661 41.3476 18.8661 41.914C18.8661 42.4804 19.3252 42.9394 19.8915 42.9394H26.6614C27.2277 42.9394 27.6868 42.4804 27.6868 41.914C27.6868 41.3476 27.2277 40.8886 26.6614 40.8886Z" fill="#2C2C2C"/>
<path d="M38.385 40.8886H31.6151C31.0488 40.8886 30.5897 41.3476 30.5897 41.914C30.5897 42.4804 31.0488 42.9394 31.6151 42.9394H38.385C38.9514 42.9394 39.4104 42.4804 39.4104 41.914C39.4104 41.3476 38.9513 40.8886 38.385 40.8886Z" fill="#2C2C2C"/>
<path d="M50.1086 40.8886H43.3387C42.7723 40.8886 42.3134 41.3476 42.3134 41.914C42.3134 42.4804 42.7723 42.9394 43.3387 42.9394H50.1086C50.6751 42.9394 51.134 42.4804 51.134 41.914C51.134 41.3476 50.6749 40.8886 50.1086 40.8886Z" fill="#2C2C2C"/>
<path d="M51.134 27.6628C51.134 26.6575 50.3163 25.8397 49.311 25.8397H20.6891C19.6838 25.8397 18.8661 26.6575 18.8661 27.6628V29.5956C18.8661 30.6009 19.6839 31.4186 20.6891 31.4186H40.9138C41.4802 31.4186 41.9391 30.9595 41.9391 30.3932C41.9391 29.8269 41.4802 29.3678 40.9138 29.3678H20.9167V27.8906H49.0831V29.3681H45.0134C44.447 29.3681 43.988 29.8272 43.988 30.3935C43.988 30.9598 44.447 31.4189 45.0134 31.4189H49.3109C50.3162 31.4189 51.1339 30.601 51.1339 29.5959V27.6628H51.134Z" fill="#2C2C2C"/>
</svg>
