<svg width="70" height="70" viewBox="0 0 70 70" fill="none" xmlns="http://www.w3.org/2000/svg">
<path d="M67.0141 63.6672L61.25 42.5141V12.0313C61.2474 11.1619 60.9009 10.3288 60.2861 9.71398C59.6713 9.09919 58.8382 8.75265 57.9688 8.75005H48.0922C46.5709 6.71311 44.5952 5.05924 42.3224 3.91998C40.0496 2.78072 37.5424 2.1875 35 2.1875C32.4577 2.1875 29.9504 2.78072 27.6776 3.91998C25.4048 5.05924 23.4291 6.71311 21.9078 8.75005H12.0313C11.1618 8.75265 10.3287 9.09919 9.71393 9.71398C9.09914 10.3288 8.7526 11.1619 8.75001 12.0313V42.5141L2.98594 63.6672C2.8506 64.1538 2.82983 64.6651 2.92525 65.161C3.02067 65.657 3.2297 66.1241 3.53593 66.5257C3.84216 66.9273 4.23728 67.2525 4.69028 67.4757C5.14328 67.699 5.64185 67.8143 6.14688 67.8125H63.8531C64.3582 67.8143 64.8567 67.699 65.3097 67.4757C65.7627 67.2525 66.1579 66.9273 66.4641 66.5257C66.7703 66.1241 66.9793 65.657 67.0748 65.161C67.1702 64.6651 67.1494 64.1538 67.0141 63.6672ZM35 4.37505C37.8122 4.37505 40.5613 5.20897 42.8995 6.77135C45.2378 8.33372 47.0602 10.5544 48.1364 13.1525C49.2126 15.7507 49.4942 18.6096 48.9455 21.3677C48.3969 24.1259 47.0427 26.6594 45.0542 28.648C43.0657 30.6365 40.5321 31.9907 37.7739 32.5393C35.0158 33.088 32.1569 32.8064 29.5587 31.7302C26.9606 30.654 24.7399 28.8316 23.1775 26.4933C21.6152 24.1551 20.7813 21.406 20.7813 18.5938C20.7847 14.8238 22.2839 11.2092 24.9497 8.54347C27.6155 5.87769 31.23 4.37853 35 4.37505ZM10.9375 12.0313C10.9375 11.7412 11.0527 11.463 11.2579 11.2579C11.463 11.0528 11.7412 10.9376 12.0313 10.9376H20.4969C19.1747 13.4377 18.5213 16.2372 18.6001 19.0644C18.6789 21.8915 19.4872 24.6503 20.9466 27.0729C22.406 29.4955 24.4668 31.4998 26.9292 32.8911C29.3916 34.2824 32.1718 35.0135 35 35.0135C37.8282 35.0135 40.6085 34.2824 43.0708 32.8911C45.5332 31.4998 47.594 29.4955 49.0534 27.0729C50.5128 24.6503 51.3211 21.8915 51.3999 19.0644C51.4787 16.2372 50.8253 13.4377 49.5031 10.9376H57.9688C58.2588 10.9376 58.537 11.0528 58.7422 11.2579C58.9473 11.463 59.0625 11.7412 59.0625 12.0313V41.5625H10.9375V12.0313ZM64.7281 65.1985C64.6257 65.333 64.4932 65.4416 64.3413 65.5156C64.1893 65.5897 64.0222 65.6272 63.8531 65.625H6.14688C5.97786 65.6272 5.81069 65.5897 5.65875 65.5156C5.5068 65.4416 5.37431 65.333 5.27188 65.1985C5.16965 65.0628 5.09976 64.9056 5.06753 64.7388C5.03531 64.5719 5.04161 64.4 5.08595 64.236L10.675 43.75H59.325L64.9141 64.236C64.9584 64.4 64.9647 64.5719 64.9325 64.7388C64.9003 64.9056 64.8304 65.0628 64.7281 65.1985Z" fill="#2C2C2C"/>
<path d="M44.8109 57.7041C44.7519 57.4673 44.6154 57.2572 44.4232 57.1069C44.2309 56.9567 43.994 56.8751 43.75 56.875H26.25C26.006 56.8751 25.7691 56.9567 25.5768 57.1069C25.3846 57.2572 25.2481 57.4673 25.1891 57.7041L24.0953 62.0791C24.0551 62.2403 24.0522 62.4085 24.0867 62.571C24.1212 62.7335 24.1923 62.886 24.2945 63.017C24.3968 63.1479 24.5276 63.2538 24.6769 63.3267C24.8262 63.3996 24.9901 63.4375 25.1563 63.4375H44.8438C45.0099 63.4375 45.1738 63.3996 45.3231 63.3267C45.4725 63.2538 45.6032 63.1479 45.7055 63.017C45.8077 62.886 45.8788 62.7335 45.9133 62.571C45.9478 62.4085 45.9449 62.2403 45.9047 62.0791L44.8109 57.7041ZM26.5573 61.25L27.1042 59.0625H42.8958L43.4427 61.25H26.5573Z" fill="#2C2C2C"/>
<path d="M29.5312 37.1875H40.4688V39.375H29.5312V37.1875Z" fill="#2C2C2C"/>
<path d="M13.125 45.9375H17.5V48.125H13.125V45.9375Z" fill="#2C2C2C"/>
<path d="M19.6875 45.9375H24.0625V48.125H19.6875V45.9375Z" fill="#2C2C2C"/>
<path d="M26.25 45.9375H30.625V48.125H26.25V45.9375Z" fill="#2C2C2C"/>
<path d="M39.375 45.9375H43.75V48.125H39.375V45.9375Z" fill="#2C2C2C"/>
<path d="M45.9375 45.9375H50.3125V48.125H45.9375V45.9375Z" fill="#2C2C2C"/>
<path d="M52.5 45.9375H56.875V48.125H52.5V45.9375Z" fill="#2C2C2C"/>
<path d="M32.8125 45.9375H37.1875V48.125H32.8125V45.9375Z" fill="#2C2C2C"/>
<path d="M13.125 50.3125H17.5V52.5H13.125V50.3125Z" fill="#2C2C2C"/>
<path d="M19.6875 50.3125H24.0625V52.5H19.6875V50.3125Z" fill="#2C2C2C"/>
<path d="M26.25 50.3125H30.625V52.5H26.25V50.3125Z" fill="#2C2C2C"/>
<path d="M39.375 50.3125H43.75V52.5H39.375V50.3125Z" fill="#2C2C2C"/>
<path d="M45.9375 50.3125H50.3125V52.5H45.9375V50.3125Z" fill="#2C2C2C"/>
<path d="M52.5 50.3125H56.875V52.5H52.5V50.3125Z" fill="#2C2C2C"/>
<path d="M32.8125 50.3125H37.1875V52.5H32.8125V50.3125Z" fill="#2C2C2C"/>
<path d="M23.4555 19.5038L30.018 23.8788L31.232 22.0588L26.0313 18.5938L31.2288 15.1288L30.0147 13.3088L23.4522 17.6838C23.3024 17.7837 23.1796 17.919 23.0946 18.0778C23.0097 18.2365 22.9652 18.4138 22.9652 18.5938C22.9652 18.7739 23.0097 18.9511 23.0946 19.1099C23.1796 19.2686 23.3024 19.4039 23.4522 19.5038H23.4555Z" fill="#2C2C2C"/>
<path d="M39.982 23.8788L46.5445 19.5038C46.6943 19.4039 46.8172 19.2686 46.9021 19.1099C46.9871 18.9511 47.0315 18.7739 47.0315 18.5938C47.0315 18.4138 46.9871 18.2365 46.9021 18.0778C46.8172 17.919 46.6943 17.7837 46.5445 17.6838L39.982 13.3088L38.768 15.1288L43.9688 18.5938L38.7713 22.0588L39.982 23.8788Z" fill="#2C2C2C"/>
<path d="M32.8318 23.8286L35.018 12.8865L37.1639 13.3152L34.9777 24.2574L32.8318 23.8286Z" fill="#2C2C2C"/>
</svg>
