<svg width="70" height="70" viewBox="0 0 70 70" fill="none" xmlns="http://www.w3.org/2000/svg">
<g clip-path="url(#clip0)">
<path d="M8.06111 25.6412C8.26085 25.8409 8.52307 25.9413 8.7853 25.9413C9.04752 25.9413 9.30974 25.8414 9.51002 25.6412C9.91003 25.2411 9.91003 24.5923 9.51002 24.1922L7.02237 21.7046L9.51002 19.2175C9.91003 18.8169 9.91003 18.1686 9.51002 17.7686C9.11001 17.3686 8.46112 17.3686 8.06111 17.7686L4.84928 20.9804C4.65701 21.1727 4.54913 21.4333 4.54913 21.7046C4.54913 21.9764 4.65701 22.2371 4.84928 22.4293L8.06111 25.6412Z" fill="#2C2C2C"/>
<path d="M18.2275 21.7046L15.7398 24.1922C15.3398 24.5922 15.3398 25.2411 15.7404 25.6411C15.9401 25.8409 16.2023 25.9413 16.4645 25.9413C16.7268 25.9413 16.989 25.8409 17.1887 25.6411L20.4011 22.4288C20.8011 22.0288 20.8011 21.3799 20.4011 20.9804L17.1887 17.768C16.7887 17.368 16.1404 17.368 15.7404 17.768C15.3398 18.1686 15.3398 18.8169 15.7404 19.2169L18.2275 21.7046Z" fill="#2C2C2C"/>
<path d="M11.0978 25.8702C11.2206 25.9183 11.3477 25.9413 11.4722 25.9413C11.8812 25.9413 12.2674 25.6945 12.426 25.2913L14.9494 18.8671C15.1566 18.3405 14.8971 17.7461 14.3705 17.5389C13.8444 17.3322 13.2495 17.5912 13.0428 18.1178L10.5189 24.542C10.3122 25.0686 10.5712 25.6636 11.0978 25.8702Z" fill="#2C2C2C"/>
<path d="M6.15345 31.9517H13.0551C13.6207 31.9517 14.0794 31.4929 14.0794 30.9268C14.0794 30.3612 13.6207 29.9025 13.0551 29.9025H6.15345C5.58734 29.9025 5.12912 30.3612 5.12912 30.9268C5.12912 31.4929 5.58734 31.9517 6.15345 31.9517Z" fill="#2C2C2C"/>
<path d="M28.9509 29.9025H16.817C16.2515 29.9025 15.7927 30.3612 15.7927 30.9268C15.7927 31.4929 16.2515 31.9517 16.817 31.9517H28.9509C29.517 31.9517 29.9757 31.4929 29.9757 30.9268C29.9757 30.3612 29.517 29.9025 28.9509 29.9025Z" fill="#2C2C2C"/>
<path d="M6.15345 36.2727H9.09344C9.65901 36.2727 10.1178 35.8139 10.1178 35.2478C10.1178 34.6822 9.65901 34.2234 9.09344 34.2234H6.15345C5.58734 34.2234 5.12912 34.6822 5.12912 35.2478C5.12912 35.8139 5.58734 36.2727 6.15345 36.2727Z" fill="#2C2C2C"/>
<path d="M25.2028 34.2234C24.6367 34.2234 24.1785 34.6822 24.1785 35.2478C24.1785 35.8139 24.6367 36.2727 25.2028 36.2727H26.993C27.5591 36.2727 28.0178 35.8139 28.0178 35.2478C28.0178 34.6822 27.5591 34.2234 26.993 34.2234H25.2028Z" fill="#2C2C2C"/>
<path d="M22.5064 35.2478C22.5064 34.6822 22.0476 34.2234 21.482 34.2234H12.6882C12.1221 34.2234 11.6639 34.6822 11.6639 35.2478C11.6639 35.8139 12.1221 36.2727 12.6882 36.2727H21.482C22.0476 36.2727 22.5064 35.8139 22.5064 35.2478Z" fill="#2C2C2C"/>
<path d="M29.2173 35.2478C29.2173 35.8139 29.6761 36.2727 30.2417 36.2727H33.595C34.1611 36.2727 34.6199 35.8139 34.6199 35.2478C34.6199 34.6822 34.1611 34.2234 33.595 34.2234H30.2417C29.6761 34.2234 29.2173 34.6822 29.2173 35.2478Z" fill="#2C2C2C"/>
<path d="M23.638 22.5266H27.1751C27.7412 22.5266 28.2 22.0678 28.2 21.5017C28.2 20.9361 27.7412 20.4774 27.1751 20.4774H23.638C23.0719 20.4774 22.6132 20.9361 22.6132 21.5017C22.6132 22.0678 23.0719 22.5266 23.638 22.5266Z" fill="#2C2C2C"/>
<path d="M31.1367 22.5266H52.7186C53.2847 22.5266 53.743 22.0678 53.743 21.5017C53.743 20.9361 53.2847 20.4774 52.7186 20.4774H31.1367C30.5706 20.4774 30.1119 20.9361 30.1119 21.5017C30.1119 22.0678 30.5706 22.5266 31.1367 22.5266Z" fill="#2C2C2C"/>
<path d="M49.4406 24.9847H40.698C40.1325 24.9847 39.6737 25.4435 39.6737 26.0096C39.6737 26.5752 40.1325 27.0339 40.698 27.0339H49.4406C50.0061 27.0339 50.4649 26.5752 50.4649 26.0096C50.4649 25.4435 50.0061 24.9847 49.4406 24.9847Z" fill="#2C2C2C"/>
<path d="M37.4199 24.9847H34.4148C33.8487 24.9847 33.3905 25.4435 33.3905 26.0096C33.3905 26.5752 33.8487 27.0339 34.4148 27.0339H37.4199C37.986 27.0339 38.4443 26.5752 38.4443 26.0096C38.4443 25.4435 37.986 24.9847 37.4199 24.9847Z" fill="#2C2C2C"/>
<path d="M23.638 27.0339H31C31.5656 27.0339 32.0244 26.5752 32.0244 26.0096C32.0244 25.4435 31.5656 24.9847 31 24.9847H23.638C23.0719 24.9847 22.6132 25.4435 22.6132 26.0096C22.6132 26.5752 23.0719 27.0339 23.638 27.0339Z" fill="#2C2C2C"/>
<path d="M21.4948 38.5082H14.5937C14.0276 38.5082 13.5688 38.967 13.5688 39.5326C13.5688 40.0981 14.0276 40.5569 14.5937 40.5569H21.4948C22.0604 40.5569 22.5192 40.0981 22.5192 39.5326C22.5192 38.967 22.0604 38.5082 21.4948 38.5082Z" fill="#2C2C2C"/>
<path d="M11.4556 38.5082H6.15345C5.58734 38.5082 5.12912 38.967 5.12912 39.5326C5.12912 40.0981 5.58734 40.5569 6.15345 40.5569H11.4556C12.0217 40.5569 12.4799 40.0981 12.4799 39.5326C12.4799 38.967 12.0217 38.5082 11.4556 38.5082Z" fill="#2C2C2C"/>
<path d="M34.0052 38.5082H24.9897C24.4236 38.5082 23.9654 38.967 23.9654 39.5326C23.9654 40.0981 24.4236 40.5569 24.9897 40.5569H34.0052C34.5708 40.5569 35.0295 40.0981 35.0295 39.5326C35.0295 38.967 34.5708 38.5082 34.0052 38.5082Z" fill="#2C2C2C"/>
<path d="M46.1972 33.2456H41.2673C40.7017 33.2456 40.243 33.7044 40.243 34.2699C40.243 34.836 40.7017 35.2948 41.2673 35.2948H46.1972C46.7633 35.2948 47.2215 34.836 47.2215 34.2699C47.2215 33.7044 46.7633 33.2456 46.1972 33.2456Z" fill="#2C2C2C"/>
<path d="M54.7518 35.2948H61.7111C62.2772 35.2948 62.736 34.836 62.736 34.2699C62.736 33.7044 62.2772 33.2456 61.7111 33.2456H54.7518C54.1857 33.2456 53.7275 33.7044 53.7275 34.2699C53.7275 34.836 54.1862 35.2948 54.7518 35.2948Z" fill="#2C2C2C"/>
<path d="M51.2719 33.2456H49.6772C49.1111 33.2456 48.6523 33.7044 48.6523 34.2699C48.6523 34.836 49.1111 35.2948 49.6772 35.2948H51.2719C51.838 35.2948 52.2962 34.836 52.2962 34.2699C52.2962 33.7044 51.838 33.2456 51.2719 33.2456Z" fill="#2C2C2C"/>
<path d="M41.2673 46.4588H46.1972C46.7633 46.4588 47.2215 46.0006 47.2215 45.4345C47.2215 44.8689 46.7633 44.4102 46.1972 44.4102H41.2673C40.7017 44.4102 40.243 44.8689 40.243 45.4345C40.243 46.0006 40.7017 46.4588 41.2673 46.4588Z" fill="#2C2C2C"/>
<path d="M54.7518 46.4588H61.7111C62.2772 46.4588 62.736 46.0006 62.736 45.4345C62.736 44.8689 62.2772 44.4102 61.7111 44.4102H54.7518C54.1857 44.4102 53.7275 44.8689 53.7275 45.4345C53.7275 46.0006 54.1862 46.4588 54.7518 46.4588Z" fill="#2C2C2C"/>
<path d="M49.6772 46.4588H51.2719C51.838 46.4588 52.2967 46.0006 52.2967 45.4345C52.2967 44.8689 51.838 44.4102 51.2719 44.4102H49.6772C49.1111 44.4102 48.6528 44.8689 48.6528 45.4345C48.6528 46.0006 49.1111 46.4588 49.6772 46.4588Z" fill="#2C2C2C"/>
<path d="M46.1972 55.5746H41.2673C40.7017 55.5746 40.243 56.0334 40.243 56.599C40.243 57.1645 40.7017 57.6233 41.2673 57.6233H46.1972C46.7633 57.6233 47.2215 57.1645 47.2215 56.599C47.2215 56.0334 46.7633 55.5746 46.1972 55.5746Z" fill="#2C2C2C"/>
<path d="M61.7111 55.5746H54.7518C54.1857 55.5746 53.7275 56.0334 53.7275 56.599C53.7275 57.1645 54.1857 57.6233 54.7518 57.6233H61.7111C62.2772 57.6233 62.736 57.1645 62.736 56.599C62.736 56.0334 62.2772 55.5746 61.7111 55.5746Z" fill="#2C2C2C"/>
<path d="M51.2719 55.5746H49.6772C49.1111 55.5746 48.6523 56.0334 48.6523 56.599C48.6523 57.1645 49.1111 57.6233 49.6772 57.6233H51.2719C51.838 57.6233 52.2962 57.1645 52.2962 56.599C52.2962 56.0334 51.838 55.5746 51.2719 55.5746Z" fill="#2C2C2C"/>
<path d="M65.4918 0.136597H4.50907C2.02302 0.136597 0 2.15908 0 4.64566V54.2155C0 56.7016 2.02302 58.724 4.50907 58.724H8.36444C8.93001 58.724 9.38877 58.2658 9.38877 57.6997C9.38877 57.1341 8.93001 56.6754 8.36444 56.6754H4.50907C3.15255 56.6754 2.04919 55.572 2.04919 54.2155V50.3292H39.373V52.0948H38.5607C37.4493 52.0948 36.5457 52.9984 36.5457 54.1098V56.6754H14.5932C14.0276 56.6754 13.5689 57.1341 13.5689 57.6997C13.5689 58.2658 14.0276 58.724 14.5932 58.724H24.4434V62.3984H21.3501C19.2865 62.3984 17.608 64.0775 17.608 66.1405V68.3537C17.608 69.2952 18.3738 70.0611 19.3153 70.0611H50.607C51.5485 70.0611 52.3144 69.2952 52.3144 68.3537V66.1405C52.3144 64.0775 50.6358 62.3984 48.5722 62.3984H45.4789V61.1033H64.4183C65.5291 61.1033 66.4328 60.1996 66.4328 59.0883V58.606C68.4296 58.1424 69.9223 56.3507 69.9223 54.2155L69.9997 4.64513C70.0003 2.15908 67.9778 0.136597 65.4918 0.136597ZM38.5949 47.8901V42.9794H64.3841V47.8901H38.5949ZM41.4217 40.9302V38.7748H61.5568V40.9302H41.4217ZM61.5568 49.9388V52.0948H41.4217V49.9388H61.5568ZM26.492 58.724H36.5457V59.0888C36.5457 60.1996 37.4493 61.1033 38.5607 61.1033H43.4303V62.3984H26.492V58.724ZM48.5727 64.4476C49.5063 64.4476 50.2657 65.207 50.2657 66.1405V68.0124H19.6566V66.1405C19.6566 65.207 20.4166 64.4476 21.3501 64.4476H48.5727ZM64.3841 59.0541H38.5949V54.1439H64.3841V59.0541ZM67.8737 54.2155C67.8737 55.2078 67.2819 56.0628 66.4333 56.4511V54.1092C66.4333 52.9984 65.5291 52.0948 64.4183 52.0948H63.606V50.3292H67.8737V54.2155ZM67.8737 48.2805H66.3997C66.4205 48.1646 66.4333 42.9452 66.4333 42.9452C66.4333 41.8339 65.5291 40.9302 64.4183 40.9302H63.606V38.7748H64.4183C65.5291 38.7748 66.4333 37.8706 66.4333 36.7598V31.7807C66.4333 30.6699 65.5291 29.7657 64.4183 29.7657H58.6318C58.0656 29.7657 57.6074 30.2245 57.6074 30.7906C57.6074 31.3561 58.0656 31.8149 58.6318 31.8149H64.3841V36.7256H38.5949V31.8149H52.2572C52.8233 31.8149 53.2815 31.3561 53.2815 30.7906C53.2815 30.2245 52.8233 29.7657 52.2572 29.7657H38.5607C37.4493 29.7657 36.5457 30.6699 36.5457 31.7807V36.7598C36.5457 37.8706 37.4493 38.7748 38.5607 38.7748H39.373V40.9302H38.5607C37.4493 40.9302 36.5457 41.8344 36.5457 42.9452C36.5457 42.9452 36.5585 48.1646 36.5794 48.2805H2.04919V14.0724H67.8737V48.2805ZM67.8737 12.0232H2.12449V4.64513C2.12449 3.28915 3.22786 2.18578 4.58437 2.18578H65.4138C66.7703 2.18578 67.8737 3.28915 67.8737 4.64566V12.0232Z" fill="#2C2C2C"/>
<path d="M7.55536 4.06885C5.89763 4.06885 4.54913 5.41735 4.54913 7.07507C4.54913 8.73279 5.89763 10.0818 7.55536 10.0818C9.21308 10.0818 10.5621 8.73279 10.5621 7.07507C10.5621 5.41735 9.21308 4.06885 7.55536 4.06885ZM7.55536 8.03264C7.0277 8.03264 6.59779 7.60326 6.59779 7.07507C6.59779 6.54742 7.0277 6.1175 7.55536 6.1175C8.08354 6.1175 8.51292 6.54742 8.51292 7.07507C8.51292 7.60326 8.08354 8.03264 7.55536 8.03264Z" fill="#2C2C2C"/>
<path d="M15.21 4.06885C13.5523 4.06885 12.2033 5.41735 12.2033 7.07507C12.2033 8.73279 13.5523 10.0818 15.21 10.0818C16.8678 10.0818 18.2163 8.73279 18.2163 7.07507C18.2163 5.41735 16.8672 4.06885 15.21 4.06885ZM15.21 8.03264C14.6819 8.03264 14.2525 7.60326 14.2525 7.07507C14.2525 6.54742 14.6819 6.1175 15.21 6.1175C15.7377 6.1175 16.1676 6.54742 16.1676 7.07507C16.1676 7.60326 15.7377 8.03264 15.21 8.03264Z" fill="#2C2C2C"/>
<path d="M22.8642 4.06885C21.2064 4.06885 19.8579 5.41735 19.8579 7.07507C19.8579 8.73279 21.2064 10.0818 22.8642 10.0818C24.5219 10.0818 25.8709 8.73279 25.8709 7.07507C25.8709 5.41735 24.5219 4.06885 22.8642 4.06885ZM22.8642 8.03264C22.3365 8.03264 21.9066 7.60326 21.9066 7.07507C21.9066 6.54742 22.3365 6.1175 22.8642 6.1175C23.3923 6.1175 23.8217 6.54742 23.8217 7.07507C23.8217 7.60326 23.3923 8.03264 22.8642 8.03264Z" fill="#2C2C2C"/>
</g>
<defs>
<clipPath id="clip0">
<rect width="70" height="70" fill="white"/>
</clipPath>
</defs>
</svg>
